<svg width="149" height="32" viewBox="0 0 149 32" fill="none" xmlns="http://www.w3.org/2000/svg">
<g id="Frame">
<path id="Vector" d="M137.788 25.496C137.788 23.4221 139.472 21.7395 141.545 21.7395C143.619 21.7395 145.3 23.4221 145.3 25.496C145.3 27.57 143.619 29.2515 141.545 29.2515C139.472 29.2515 137.788 27.57 137.788 25.496Z" fill="white"/>
<path id="Vector_2" d="M17.9871 15.5442C17.9871 13.1648 17.5274 11.3996 16.6078 10.2496C15.6871 9.10068 14.2925 8.52675 12.4175 8.52675H10.423V23.0769H11.949C14.0316 23.0769 15.5577 22.4594 16.5295 21.2203C17.5001 19.9834 17.9871 18.0909 17.9871 15.5442ZM25.1001 15.2964C25.1001 19.6312 23.9349 22.9714 21.6044 25.3159C19.274 27.6616 15.998 28.8345 11.7751 28.8345H3.56959V2.85938H12.3479C16.4196 2.85938 19.5631 3.92568 21.7783 6.05721C23.9925 8.18982 25.1001 11.2681 25.1001 15.2964Z" fill="white"/>
<path id="Vector_3" d="M47.83 28.8389H54.3594V2.75513H47.83V28.8389Z" fill="white"/>
<path id="Vector_4" d="M63.5282 19.1026C63.5282 20.7657 63.7456 22.0341 64.1793 22.9059C64.6141 23.7787 65.3423 24.2146 66.3662 24.2146C67.3792 24.2146 68.0955 23.7787 68.5129 22.9059C68.9303 22.0341 69.1379 20.7657 69.1379 19.1026C69.1379 17.4482 68.927 16.2004 68.5042 15.358C68.0803 14.5134 67.3576 14.0906 66.3326 14.0906C65.3304 14.0906 64.6141 14.5113 64.1793 15.3482C63.7456 16.1863 63.5282 17.4374 63.5282 19.1026ZM75.7837 19.1026C75.7837 22.2711 74.9531 24.7428 73.2879 26.5146C71.6238 28.2874 69.2945 29.1743 66.2999 29.1743C63.4282 29.1743 61.1422 28.2678 59.4455 26.4548C57.7466 24.6417 56.8977 22.1917 56.8977 19.1026C56.8977 15.9439 57.7293 13.4895 59.3945 11.7395C61.0597 9.98949 63.3945 9.1145 66.401 9.1145C68.2586 9.1145 69.9021 9.51996 71.3261 10.3297C72.751 11.1395 73.8511 12.2993 74.6239 13.8102C75.3978 15.3189 75.7837 17.0841 75.7837 19.1026Z" fill="white"/>
<path id="Vector_5" d="M78.3769 28.8333H84.9074V18.8507V9.45825H78.3769V28.8333Z" fill="white"/>
<path id="Vector_6" d="M78.3769 7.11631H84.9074V2.75H78.3769V7.11631Z" fill="white"/>
<path id="Vector_7" d="M98.1378 23.8939C99.0193 23.8939 100.069 23.67 101.294 23.2254V28.1004C100.414 28.4874 99.5769 28.7646 98.7812 28.9287C97.9856 29.095 97.0518 29.1776 95.9834 29.1776C93.7909 29.1776 92.2105 28.6265 91.2398 27.5265C90.2735 26.4265 89.7887 24.7374 89.7887 22.458V14.471H87.5019V9.46232H89.7887V4.51447L96.3693 3.36987V9.46232H100.536V14.471H96.3693V22.0124C96.3693 23.2667 96.9595 23.8939 98.1378 23.8939Z" fill="white"/>
<path id="Vector_8" d="M113.253 23.8939C114.135 23.8939 115.185 23.67 116.41 23.2254V28.1004C115.531 28.4874 114.693 28.7646 113.897 28.9287C113.1 29.095 112.17 29.1776 111.099 29.1776C108.907 29.1776 107.326 28.6265 106.358 27.5265C105.389 26.4265 104.905 24.7374 104.905 22.458V14.471H102.616V9.46232H104.905V4.43948L111.484 3.36987V9.46232H115.652V14.471H111.484V22.0124C111.484 23.2667 112.074 23.8939 113.253 23.8939Z" fill="white"/>
<path id="Vector_9" d="M124.654 16.7417C124.743 15.6808 125.047 14.9037 125.564 14.4069C126.084 13.9113 126.725 13.6634 127.492 13.6634C128.329 13.6634 128.995 13.9417 129.488 14.5025C129.985 15.0602 130.243 15.8069 130.264 16.7417H124.654ZM133.863 11.3982C132.311 9.87649 130.109 9.1145 127.26 9.1145C124.265 9.1145 121.961 9.98949 120.346 11.7395C118.731 13.4895 117.924 16.0004 117.924 19.2722C117.924 22.4407 118.797 24.8841 120.538 26.5993C122.28 28.3146 124.727 29.1733 127.878 29.1733C129.391 29.1733 130.694 29.07 131.785 28.8646C132.87 28.6613 133.92 28.2939 134.938 27.7635L133.935 23.3972C133.195 23.6993 132.49 23.932 131.825 24.0852C130.864 24.308 129.81 24.42 128.662 24.42C127.403 24.42 126.41 24.1124 125.682 23.4972C124.953 22.8808 124.565 22.0309 124.521 20.9483H136.192V17.9732C136.192 15.1113 135.416 12.9189 133.863 11.3982Z" fill="white"/>
<path id="Vector_10" d="M33.7636 16.7417C33.8527 15.6808 34.156 14.9037 34.6733 14.4069C35.1918 13.9113 35.8343 13.6634 36.6028 13.6634C37.4376 13.6634 38.1028 13.9417 38.5974 14.5025C39.0941 15.0602 39.3517 15.8069 39.3746 16.7417H33.7636ZM42.9735 11.3982C41.4202 9.87649 39.219 9.1145 36.3691 9.1145C33.3734 9.1145 31.07 9.98949 29.4559 11.7395C27.8418 13.4895 27.0331 16.0004 27.0331 19.2722C27.0331 22.4407 27.9049 24.8841 29.6484 26.5993C31.3897 28.3146 33.8364 29.1733 36.9875 29.1733C38.5006 29.1733 39.8027 29.07 40.894 28.8646C41.9788 28.6613 43.029 28.2939 44.0485 27.7635L43.0442 23.3972C42.3039 23.6993 41.5995 23.932 40.9354 24.0852C39.9724 24.308 38.919 24.42 37.7711 24.42C36.5135 24.42 35.5192 24.1124 34.7909 23.4972C34.0615 22.8808 33.6746 22.0309 33.6301 20.9483H45.3017V17.9732C45.3017 15.1113 44.5256 12.9189 42.9735 11.3982Z" fill="white"/>
</g>
</svg>
