<svg width="113" height="32" viewBox="0 0 113 32" fill="none" xmlns="http://www.w3.org/2000/svg">
<g id="Group">
<path id="Vector" d="M60.8228 20.6825C60.8228 24.1471 56.4867 23.9414 56.4867 23.9414H52.1741V17.6547H56.5101C60.9509 17.6294 60.8228 20.6825 60.8228 20.6825ZM52.1741 8.08395H55.4582C58.8704 8.26439 58.7422 10.8032 58.7422 10.8032C58.7422 13.9592 54.971 14.0115 54.971 14.0115H52.1741V8.08395ZM60.027 15.2692C60.027 15.2692 62.9773 14.0115 62.952 10.6499C62.952 10.6499 63.4139 5.15895 56.1258 4.49131H48.069V27.4835H57.3077C57.3077 27.4835 65.0325 27.5088 65.0325 20.9911C65.056 21.0164 65.2364 16.5774 60.027 15.2692ZM39.1641 5.34058e-05H73.1128V32H39.1641V5.34058e-05Z" fill="white"/>
<path id="Vector_2" d="M21.6822 20.6825C21.6822 24.1471 17.3461 23.9414 17.3461 23.9414H13.01V17.6547H17.3461C21.8121 17.6294 21.6822 20.6825 21.6822 20.6825ZM13.01 8.08395H16.2941C19.7063 8.26439 19.5782 10.8032 19.5782 10.8032C19.5782 13.9592 15.8069 14.0115 15.8069 14.0115H13.01V8.08395ZM20.8611 15.2692C20.8611 15.2692 23.8114 14.0115 23.7861 10.6499C23.7861 10.6499 24.2481 5.15895 16.9599 4.49131H8.92837V27.4835H18.1671C18.1671 27.4835 25.8919 27.5088 25.8919 20.9911C25.8919 21.0164 26.0706 16.5774 20.8611 15.2692ZM0 5.34058e-05H33.9487V32H0V5.34058e-05Z" fill="white"/>
<path id="Vector_3" d="M105.326 6.15861V10.4189C105.326 10.4189 101.169 7.87824 96.6017 7.82772C96.6017 7.82772 88.0559 7.64727 87.6715 16.0127C87.6715 16.0127 87.363 23.7104 96.4989 24.1471C96.4989 24.1471 100.348 24.609 105.532 21.2979V25.7115C105.532 25.7115 98.5523 29.869 90.4684 26.6607C90.4684 26.6607 83.6675 24.1723 83.4113 16.0379C83.4113 16.0379 83.1298 7.67253 92.1881 4.87565C92.1881 4.87565 94.6006 3.95178 98.9619 4.36319C98.9619 4.33793 101.553 4.59416 105.326 6.15861ZM78.3047 32H112.253V5.34058e-05H78.3047V32Z" fill="white"/>
</g>
</svg>
