<svg width="151" height="32" viewBox="0 0 151 32" fill="none" xmlns="http://www.w3.org/2000/svg">
<g id="Frame" clip-path="url(#clip0_2_426)">
<g id="Group">
<path id="Vector" d="M19.8926 12.0169C19.6479 11.2368 18.9331 9.48325 18.7384 8.18863C18.3087 5.32128 19.8078 3.43289 21.1845 3.00042C22.7294 2.56934 23.3329 3.34528 23.9309 5.14884C24.7041 7.89522 24.7903 11.494 24.5303 16.6461C24.1923 23.6837 20.6713 32.1829 11.9189 32.0063C4.36377 31.8408 1.02077 26.9474 0.673121 19.4814C0.50903 15.9619 0.760729 12.4438 2.21808 7.46831C2.99125 4.80398 3.68099 3.85562 6.07977 3.34528C7.96543 3.00042 7.79577 4.97225 7.36886 7.29728C6.42881 12.4438 5.99216 14.9287 6.33981 20.7677C6.67634 26.9474 9.51455 29.3517 12.6045 29.3517C17.2393 29.4407 19.2974 25.5791 20.1596 19.9946C20.8396 15.5336 20.3265 13.388 19.8926 12.0169ZM118.714 18.1117C120.519 18.1117 121.036 20.2463 120.605 21.5395C120.174 22.8244 118.632 24.29 116.231 24.7169C115.713 23.4265 115.455 18.1117 118.714 18.1117ZM85.1646 21.0208C85.1646 19.5677 84.3872 18.3648 83.4514 18.3648C82.6698 18.3648 80.8746 19.22 80.8746 21.9678C80.8746 24.1204 81.6394 25.141 81.9898 25.5791C84.4721 24.8031 85.1646 22.7381 85.1646 21.0208ZM58.4678 3.51632C58.3469 2.13966 57.2678 1.20242 55.8076 1.20242C54.1792 1.20242 52.6454 2.91143 52.8081 5.05847C52.9124 6.47406 53.7468 7.63796 55.3863 7.63796C57.2677 7.63935 58.6403 5.49371 58.4678 3.51632ZM72.4253 8.55713C72.2765 6.15701 71.6952 5.07376 70.4061 5.16275C68.6971 5.26566 67.9072 10.643 68.2563 16.2956C68.4788 19.9834 69.0281 20.5522 69.5398 20.516C70.4854 20.459 72.7535 13.8705 72.4253 8.55713ZM129.358 17.5917C128.294 22.0039 125.069 28.4951 120.258 28.4951C119.144 28.4951 117.169 28.0626 117.169 26.9474C117.169 25.7446 124.727 25.5791 124.727 19.8249C124.727 17.682 122.754 14.6742 119.834 14.6742C115.972 14.6742 112.205 18.8835 112.205 24.7183C112.205 29.9496 115.455 31.667 118.716 31.667C124.382 31.667 127.816 27.0294 129.617 23.1706C130.479 25.7459 130.985 31.667 133.139 31.667C133.994 31.667 134.599 31.2373 135.629 28.9234C138.198 23.1692 140.69 16.5612 144.125 16.5612C145.408 16.5612 144.639 18.8835 147.728 18.8835C149.184 18.8835 150.21 17.682 150.21 16.3026C150.21 14.3266 148.41 12.7872 145.667 12.7872C137.597 12.7872 135.887 24.8894 134.598 24.8894C132.451 24.8894 133.137 15.1901 131.59 15.1901C130.216 15.1888 129.541 16.8255 129.358 17.5917ZM60.7011 27.8888C61.9874 27.8888 64.1999 27.4716 65.9409 24.6836C64.9453 22.4726 64.2347 18.0047 64.1359 16.3777C63.6242 8.05792 66.8295 0.231793 70.338 0.0148644C72.9106 -0.140879 74.9687 2.29401 75.2051 6.23906C75.8378 16.6057 72.385 20.9332 70.6564 24.6669C70.9485 26.1144 73.4043 28.5785 75.721 28.5785C76.5762 28.5785 77.6108 28.1488 77.8709 27.8012C77.6984 27.2047 77.5232 26.4329 77.5232 25.3135C77.5232 19.3062 81.3863 14.2404 84.7349 14.2404C87.3951 14.2404 88.9401 17.7585 88.9401 20.0808C88.9401 22.823 86.6205 25.059 83.1899 27.2047C83.7934 27.8012 84.9031 28.2351 85.8515 28.2351C90.7478 28.2351 93.3093 22.3112 95.2061 16.9019C95.5482 15.8701 96.1531 14.4142 97.3518 14.4142C99.4113 14.4142 100.273 27.975 103.697 27.975C105.161 27.975 106.36 24.9686 106.36 22.6575C106.36 20.9388 105.759 20.7663 105.759 18.2772C105.759 15.5336 107.219 13.2183 109.198 13.2183C110.398 13.2183 110.832 14.4142 110.832 15.8701C110.832 21.3643 106.879 31.5794 101.051 31.5794C96.6662 31.5794 97.0083 24.0258 95.4647 24.0258C93.7404 24.0258 91.3374 31.6642 82.8492 31.6642C81.4697 31.6642 80.0138 30.9787 78.8151 29.602C76.7584 30.9787 75.0368 31.5794 73.0622 31.5794C69.8902 31.5794 68.5135 28.3171 67.23 28.3171C65.6823 28.3171 63.9704 31.6642 58.8155 31.6642C54.6965 31.6642 54.0096 26.177 52.5536 26.177C51.2631 26.177 49.2899 31.6642 47.1456 31.6642C43.5356 31.6642 42.7708 22.1402 39.5891 22.1402C37.1013 22.1402 29.2374 31.813 27.1029 31.5919C26.2449 31.5029 25.8833 30.8618 25.9737 30.0025C26.0947 28.8149 27.1168 25.6361 27.5312 24.1329C28.2251 21.5228 28.862 18.6624 29.218 17.7502C29.5712 16.8296 30.5237 16.1733 31.2886 16.2442C31.6738 16.2803 31.7892 16.9993 31.9088 17.593C32.3426 19.7151 32.9476 21.8788 33.6303 21.8788C34.836 21.8788 38.8173 14.239 41.134 14.239C43.9708 14.239 44.3101 26.2577 48.1704 26.2577C49.4609 26.2577 50.4079 24.7155 51.2631 22.8216C51.3507 19.6413 52.2088 15.1025 54.7828 15.1025C56.5864 15.1025 57.4458 19.1324 56.1539 22.6561C56.1511 26.8584 58.8948 27.8888 60.7011 27.8888Z" fill="white"/>
</g>
</g>
<defs>
<clipPath id="clip0_2_426">
<rect width="149.579" height="31.9999" fill="white" transform="translate(0.627411)"/>
</clipPath>
</defs>
</svg>
